<?xml version="1.0" encoding="UTF-8"?>
<svg width="20px" height="21px" viewBox="0 0 20 21" version="1.1" xmlns="http://www.w3.org/2000/svg" xmlns:xlink="http://www.w3.org/1999/xlink">
    <!-- Generator: Sketch 39.1 (31720) - http://www.bohemiancoding.com/sketch -->
    <title>Group 6</title>
    <desc>Created with Sketch.</desc>
    <defs></defs>
    <g id="Page-1" stroke="none" stroke-width="1" fill="none" fill-rule="evenodd">
        <g id="카드-에디터-copy-4" transform="translate(-39.000000, -301.000000)">
            <g id="Group-7" transform="translate(0.000000, 48.000000)">
                <g id="Group-3" transform="translate(37.000000, 252.000000)">
                    <g id="Group-6">
                        <g id="Group" transform="translate(3.000000, 2.000000)" stroke="#37474F" stroke-linecap="round" stroke-linejoin="round">
                            <path d="M3.27272727,9.56521739 L14.7272727,9.56521739" id="Stroke-164"></path>
                            <polygon id="Stroke-165" points="4.09090909 9.56521739 7.36363636 9.56521739 7.36363636 5.2173913 4.09090909 5.2173913"></polygon>
                            <polygon id="Stroke-166" points="7.36363636 9.56521739 10.6363636 9.56521739 10.6363636 6.08695652 7.36363636 6.08695652"></polygon>
                            <polygon id="Stroke-167" points="10.6363636 9.56521739 13.9090909 9.56521739 13.9090909 2.60869565 10.6363636 2.60869565"></polygon>
                            <path d="M18,12.173913 L0,12.173913 L0,1.5573913 C0,0.697391304 0.656181818,0 1.46536364,0 L16.5346364,0 C17.3438182,0 18,0.697391304 18,1.5573913 L18,12.173913 Z" id="Stroke-244"></path>
                            <path d="M16.5346364,15.6521739 L1.46454545,15.6521739 C0.655363636,15.6521739 0,14.9547826 0,14.0947826 L0,12.173913 L18,12.173913 L18,14.0947826 C18,14.9547826 17.3438182,15.6521739 16.5346364,15.6521739 Z" id="Stroke-245"></path>
                            <polygon id="Stroke-246" points="12.2727273 19.1304348 5.72727273 19.1304348 6.54545455 15.6521739 11.4545455 15.6521739"></polygon>
                            <path d="M4.90909091,19.1304348 L13.0909091,19.1304348" id="Stroke-247"></path>
                        </g>
                        <rect id="Rectangle" x="0" y="0" width="24" height="24"></rect>
                    </g>
                </g>
            </g>
        </g>
    </g>
</svg>