<?xml version="1.0" encoding="UTF-8"?>
<svg width="20px" height="18px" viewBox="0 0 20 18" version="1.1" xmlns="http://www.w3.org/2000/svg" xmlns:xlink="http://www.w3.org/1999/xlink">
    <!-- Generator: Sketch 39.1 (31720) - http://www.bohemiancoding.com/sketch -->
    <title>Group 12</title>
    <desc>Created with Sketch.</desc>
    <defs></defs>
    <g id="Page-1" stroke="none" stroke-width="1" fill="none" fill-rule="evenodd">
        <g id="카드-에디터" transform="translate(-77.000000, -136.000000)">
            <g id="Group-12" transform="translate(75.000000, 133.000000)">
                <rect id="Rectangle-9" x="0" y="0" width="24" height="24"></rect>
                <g id="editor_images_pictures_photos_collection_glyph-copy-2" transform="translate(2.000000, 3.000000)">
                    <g id="editor_images_pictures_photos_collection_glyph">
                        <g id="miu">
                            <g id="editor_images_pictures_photos_collection_glyph">
                                <g id="path-1-link" fill="#ECEFF1">
                                    <path d="M0.127716065,3.6 C0.0571804298,3.6 0,3.65214214 0,3.71591198 L0,17.884088 C0,17.9481045 0.0573730466,18 0.127716065,18 L19.872284,18 C19.9428195,18 20,17.9478579 20,17.884088 L20,3.71591198 C20,3.65189557 19.9426269,3.6 19.872284,3.6 L0.127716065,3.6 L0.127716065,3.6 Z M7.55587959,7.16901551 L10.5163844,12.230643 C10.5528144,12.2929281 10.6314973,12.3091987 10.6898974,12.2685374 L13.2012672,10.5199815 C13.3188168,10.4381368 13.4753516,10.4666892 13.5538478,10.5883268 L18.1180501,15.8610073 C18.1952254,15.980598 18.1394253,16.0775455 18.0031584,16.0775455 L1.95202442,16.0775455 C1.81102085,16.0775455 1.74975745,15.9762881 1.81634153,15.8491803 L7.30457204,7.1722435 C7.37064,7.04612089 7.4844668,7.04691984 7.55587959,7.16901551 L7.55587959,7.16901551 Z M15.9090909,8.1 C16.6622065,8.1 17.2727273,7.49558443 17.2727273,6.75 C17.2727273,6.00441556 16.6622065,5.4 15.9090909,5.4 C15.1559754,5.4 14.5454545,6.00441556 14.5454545,6.75 C14.5454545,7.49558443 15.1559754,8.1 15.9090909,8.1 L15.9090909,8.1 Z M1.81818182,0 L1.81818182,0.9 L18.1818182,0.9 L18.1818182,0 L1.81818182,0 L1.81818182,0 Z M0.909090909,1.8 L0.909090909,2.7 L19.0909091,2.7 L19.0909091,1.8 L0.909090909,1.8 L0.909090909,1.8 Z" id="path-1"></path>
                                </g>
                                <path d="M0.127716065,3.6 C0.0571804298,3.6 0,3.65214214 0,3.71591198 L0,17.884088 C0,17.9481045 0.0573730466,18 0.127716065,18 L19.872284,18 C19.9428195,18 20,17.9478579 20,17.884088 L20,3.71591198 C20,3.65189557 19.9426269,3.6 19.872284,3.6 L0.127716065,3.6 L0.127716065,3.6 Z M7.55587959,7.16901551 L10.5163844,12.230643 C10.5528144,12.2929281 10.6314973,12.3091987 10.6898974,12.2685374 L13.2012672,10.5199815 C13.3188168,10.4381368 13.4753516,10.4666892 13.5538478,10.5883268 L18.1180501,15.8610073 C18.1952254,15.980598 18.1394253,16.0775455 18.0031584,16.0775455 L1.95202442,16.0775455 C1.81102085,16.0775455 1.74975745,15.9762881 1.81634153,15.8491803 L7.30457204,7.1722435 C7.37064,7.04612089 7.4844668,7.04691984 7.55587959,7.16901551 L7.55587959,7.16901551 Z M15.9090909,8.1 C16.6622065,8.1 17.2727273,7.49558443 17.2727273,6.75 C17.2727273,6.00441556 16.6622065,5.4 15.9090909,5.4 C15.1559754,5.4 14.5454545,6.00441556 14.5454545,6.75 C14.5454545,7.49558443 15.1559754,8.1 15.9090909,8.1 L15.9090909,8.1 Z M1.81818182,0 L1.81818182,0.9 L18.1818182,0.9 L18.1818182,0 L1.81818182,0 L1.81818182,0 Z M0.909090909,1.8 L0.909090909,2.7 L19.0909091,2.7 L19.0909091,1.8 L0.909090909,1.8 L0.909090909,1.8 Z" id="path-1"></path>
                            </g>
                        </g>
                    </g>
                </g>
            </g>
        </g>
    </g>
</svg>