<?xml version="1.0" encoding="UTF-8"?>
<svg width="16px" height="16px" viewBox="0 0 16 16" version="1.1" xmlns="http://www.w3.org/2000/svg" xmlns:xlink="http://www.w3.org/1999/xlink">
    <!-- Generator: Sketch 39.1 (31720) - http://www.bohemiancoding.com/sketch -->
    <title>Group 4</title>
    <desc>Created with Sketch.</desc>
    <defs>
        <rect id="path-1" x="0" y="0" width="16" height="16" rx="2"></rect>
        <mask id="mask-2" maskContentUnits="userSpaceOnUse" maskUnits="objectBoundingBox" x="0" y="0" width="16" height="16" fill="white">
            <use xlink:href="#path-1"></use>
        </mask>
        <path d="M3.83333333,6.33333333 C4.84585537,6.33333333 5.66666667,5.51252204 5.66666667,4.5 C5.66666667,3.48747796 4.84585537,2.66666667 3.83333333,2.66666667 C2.82081129,2.66666667 2,3.48747796 2,4.5 C2,5.51252204 2.82081129,6.33333333 3.83333333,6.33333333 Z" id="path-3"></path>
        <mask id="mask-4" maskContentUnits="userSpaceOnUse" maskUnits="objectBoundingBox" x="0" y="0" width="3.66666667" height="3.66666667" fill="white">
            <use xlink:href="#path-3"></use>
        </mask>
    </defs>
    <g id="Page-1" stroke="none" stroke-width="1" fill="none" fill-rule="evenodd">
        <g id="카드-에디터" transform="translate(-172.000000, -521.000000)">
            <g id="Group-4" transform="translate(168.000000, 517.000000)">
                <g id="Photo-Copy" transform="translate(4.000000, 4.000000)">
                    <polygon id="Path-208" fill="#37474F" points="1 15.3333333 6.66666667 9.66666667 8.66666667 11.3333333 13 7.33333333 15.3333333 9.66666667 15.3333333 15.3333333"></polygon>
                    <use id="Rectangle-101" stroke="#37474F" mask="url(#mask-2)" stroke-width="2" xlink:href="#path-1"></use>
                    <use id="Oval-28" stroke="#37474F" mask="url(#mask-4)" xlink:href="#path-3"></use>
                </g>
                <g id="Group-5">
                    <rect id="Rectangle-15" x="0" y="0" width="24" height="24"></rect>
                </g>
            </g>
        </g>
    </g>
</svg>