<?xml version="1.0" encoding="UTF-8"?>
<svg width="19px" height="19px" viewBox="0 0 19 19" version="1.1" xmlns="http://www.w3.org/2000/svg" xmlns:xlink="http://www.w3.org/1999/xlink">
    <!-- Generator: Sketch 39.1 (31720) - http://www.bohemiancoding.com/sketch -->
    <title>Group 3</title>
    <desc>Created with Sketch.</desc>
    <defs></defs>
    <g id="Page-1" stroke="none" stroke-width="1" fill="none" fill-rule="evenodd">
        <g id="카드-에디터" transform="translate(-28.000000, -507.000000)">
            <g id="Group-3" transform="translate(25.000000, 504.000000)">
                <g id="Group-13" transform="translate(4.000000, 4.000000)">
                    <circle id="Oval" stroke="#37474F" stroke-width="0.8" cx="8.5" cy="8.5" r="8.5"></circle>
                    <path d="M2.42857143,8.92857143 C2.42857143,8.65242905 2.657572,8.42857143 2.92891874,8.42857143 L13.9282241,8.42857143 C14.2045583,8.42857143 14.4285714,8.66050502 14.4285714,8.92857143 L14.4285714,8.92857143 C14.4285714,9.2047138 14.2001771,9.42857143 13.9323556,9.42857143 L11.749006,9.42857143 C11.4749536,9.42857143 11.0346622,9.42857143 10.7530787,9.42857143 L2.92828286,9.42857143 C2.65229986,9.42857143 2.42857143,9.19663783 2.42857143,8.92857143 L2.42857143,8.92857143 Z" id="Rectangle-2" fill="#37474F"></path>
                    <path d="M2.42857143,8.92857143 C2.42857143,8.65242905 2.657572,8.42857143 2.92891874,8.42857143 L13.9282241,8.42857143 C14.2045583,8.42857143 14.4285714,8.66050502 14.4285714,8.92857143 L14.4285714,8.92857143 C14.4285714,9.2047138 14.2001771,9.42857143 13.9323556,9.42857143 L11.749006,9.42857143 C11.4749536,9.42857143 11.0346622,9.42857143 10.7530787,9.42857143 L2.92828286,9.42857143 C2.65229986,9.42857143 2.42857143,9.19663783 2.42857143,8.92857143 L2.42857143,8.92857143 Z" id="Rectangle-2-Copy" fill="#37474F" transform="translate(8.428571, 8.928571) rotate(-270.000000) translate(-8.428571, -8.928571) "></path>
                </g>
                <rect id="Rectangle-9" x="0" y="0" width="25" height="25"></rect>
            </g>
        </g>
    </g>
</svg>